<?xml version="1.0" standalone="no"?>
<!DOCTYPE svg PUBLIC "-//W3C//DTD SVG 1.1//EN" "http://www.w3.org/Graphics/SVG/1.1/DTD/svg11.dtd">
<svg xmlns="http://www.w3.org/2000/svg">
<metadata>Copyright (C) 2014 by original authors @ fontello.com</metadata>
<defs>
<font id="fontello" horiz-adv-x="1000" >
<font-face font-family="fontello" font-weight="400" font-stretch="normal" units-per-em="1000" ascent="850" descent="-150" />
<missing-glyph horiz-adv-x="1000" />
<glyph glyph-name="search-01" unicode="&#xe800;" d="m911 50l-150 150c37 59 59 128 59 203 0 207-168 375-375 375-207 0-375-168-375-375s168-375 375-375c88 0 168 30 231 80l147-147c12-12 28-18 44-18s32 6 44 18c25 25 25 64 0 89z m-466 103c-137 0-250 112-250 250s113 250 250 250 250-112 250-250-112-250-250-250z" horiz-adv-x="1000" />
<glyph glyph-name="menu" unicode="&#xe801;" d="m0 29v71q0 15 11 25t25 11h785q15 0 26-11t10-25v-71q0-15-10-26t-26-10h-785q-15 0-25 10t-11 26z m0 285v72q0 14 11 25t25 10h785q15 0 26-10t10-25v-72q0-14-10-25t-26-10h-785q-15 0-25 10t-11 25z m0 286v71q0 15 11 26t25 10h785q15 0 26-10t10-26v-71q0-15-10-25t-26-11h-785q-15 0-25 11t-11 25z" horiz-adv-x="857.1" />
<glyph glyph-name="about" unicode="&#xe802;" d="m927 28l-120 137-1-1 0 1c-89-27-194-41-303-41-112 0-218 15-308 43l-1-4-2 2-120-137 70-62 84 96c85-20 179-31 277-31 95 0 188 10 271 29l83-94 70 62z m-427 635c95 0 172-78 172-172s-77-172-172-172-172 77-172 172 77 172 172 172m0 93c-147 0-266-119-266-265s119-266 266-266 266 119 266 266-119 265-266 265l0 0z" horiz-adv-x="1000" />
<glyph glyph-name="favorites" unicode="&#xe803;" d="m319 581l117-111 64-61 64 61 117 111 151-152-332-333-332 333 151 152m-2 130l-281-282 464-466 464 466-281 282-183-173-183 173 0 0z" horiz-adv-x="1000" />
<glyph glyph-name="products" unicode="&#xe804;" d="m500 679l281-164v-330l-281-164-281 164v330l281 164m0 109l-375-219v-438l375-219 375 219v438l-375 219 0 0z" horiz-adv-x="1000" />
<glyph glyph-name="-cloudy" unicode="&#xe805;" d="m607 639c9 0 16 7 16 16v64c0 9-7 16-16 16s-16-7-16-16v-64c0-9 7-16 16-16z m333-241h-63c-9 0-16-7-16-16 0-9 7-16 16-16h63c9 0 16 7 16 16 0 9-7 16-16 16z m-341-417c95 0 175 83 175 181 0 42-15 80-39 111 40 35 63 85 63 139 0 103-83 187-185 187-79 0-149-52-174-127-81-1-150-58-168-137-17 5-35 8-53 8-94 0-174-83-174-181 0-98 80-181 174-181h381z m14 586c84 0 153-70 153-155 0-44-19-86-52-116-29 27-65 45-106 47-18 65-71 114-136 126 22 58 79 98 141 98z m-537-405c0 81 65 149 142 149 20 0 40-4 59-13 5-2 10-2 15 1s7 7 7 12c8 73 69 129 142 129 67 0 126-49 139-116 2-8 8-13 16-13 1 0 3 0 3 0 78 0 143-68 143-149 0-81-65-149-143-149h-381c-77 0-142 68-142 149z m337 404c3-3 7-5 11-5 4 0 9 2 12 5 6 6 6 16 0 23l-45 45c-6 6-17 6-23 0s-6-16 0-23l45-45z m393-5c4 0 8 2 11 5l45 45c6 7 6 17 0 23s-16 6-23 0l-45-45c-6-7-6-17 0-23 4-3 8-5 12-5z m7-335l45-45c3-3 7-5 11-5 4 0 8 2 11 5 6 6 6 16 0 22l-45 46c-6 6-16 6-22 0-6-7-6-17 0-23z" horiz-adv-x="1000" />
<glyph glyph-name="-light-rain" unicode="&#xe806;" d="m311 186h378c99 0 173 103 173 194 0 89-70 189-164 195-21 74-89 127-166 127-82 0-151-57-168-135-17 5-35 8-53 8-99 0-173-103-173-195 0-91 74-194 173-194z m0 357c20 0 40-4 58-13 5-2 10-2 15 1 4 3 7 7 8 12 8 73 68 127 140 127 67 0 125-48 138-114 2-8 9-13 16-13 1 0 2 0 3 0 80 0 141-87 141-163s-61-163-141-163h-378c-80 0-141 88-141 163 0 76 62 163 141 163z m187-421v-127c0-9 7-16 16-16s16 7 16 16v127c0 9-7 16-16 16-9 0-16-7-16-16z m-144 0v-63c0-9 7-16 16-16s15 7 15 16v63c0 9-7 16-15 16-9 0-16-7-16-16z m289 0v-63c0-9 7-16 15-16s16 7 16 16v63c0 9-7 16-16 16-8 0-15-7-15-16z" horiz-adv-x="1000" />
<glyph glyph-name="-light-snow" unicode="&#xe807;" d="m311 192h378c92 0 173 90 173 193 0 99-76 186-164 192-21 75-89 129-166 129-82 0-151-58-168-137-17 5-35 8-53 8-92 0-173-90-173-192 0-103 81-193 173-193z m0 353c20 0 40-4 58-13 5-2 10-2 15 1 4 2 7 7 8 12 8 73 68 129 140 129 67 0 125-49 138-116 2-8 8-13 16-13 1 0 2 0 3 0 81 0 141-85 141-160 0-76-60-161-141-161h-378c-81 0-141 85-141 161 0 75 60 160 141 160z m173-420c0-9 7-16 16-16s16 7 16 16-7 16-16 16-16-8-16-16z m158 3c0-9 7-16 15-16 9 0 16 7 16 16s-7 16-16 16c-8 0-15-7-15-16z m-156-105c0 9-7 16-16 16s-15-7-15-16 7-16 15-16 16 7 16 16z m-159 105c0-9 7-16 16-16s15 7 15 16-7 16-15 16c-9 0-16-7-16-16z" horiz-adv-x="1000" />
<glyph glyph-name="-overcast" unicode="&#xe808;" d="m253 58h395c99 0 182 84 182 183 0 15-3 29-6 43 61 15 105 70 105 133 0 72-56 131-130 137-18 58-72 99-134 99-65 0-119-44-135-104-15 4-30 6-46 6-85 0-158-58-176-139-18 6-37 9-55 9-98 0-181-84-181-184 0-99 83-183 181-183z m412 562c51 0 95-35 105-85 1-7 10-12 19-12 59 0 107-48 107-106 0-49-35-91-82-103-28 62-87 107-156 110-14 51-50 91-97 113 11 48 53 83 104 83z m-412-228c21 0 41-4 61-13 5-2 10-2 15 0 4 3 7 8 8 13 8 74 71 131 147 131 70 0 131-50 145-118 2-8 8-13 17-13 1 0 2 0 2 0 81 0 149-69 149-151s-68-151-149-151h-395c-81 0-149 69-149 151 1 82 68 151 149 151z" horiz-adv-x="1000" />
<glyph glyph-name="-sleet" unicode="&#xe809;" d="m374 183c0 9-7 16-15 16s-16-7-16-16v-127c0-9 7-16 16-16s15 7 15 16v127z m189 0c0 9-7 16-16 16s-15-7-15-16v-127c0-9 7-16 15-16s16 7 16 16v127z m-94 0c0 9-7 16-16 16s-16-7-16-16v-64c0-8 7-15 16-15s16 7 16 15v64z m188 0c0 9-7 16-15 16s-16-7-16-16v-64c0-8 7-15 16-15s15 7 15 15v64z m200 248c0 97-74 179-164 185-21 74-89 127-167 127-81 0-150-57-168-136-17 6-34 9-52 9-94 0-173-85-173-185s79-184 173-184h378c93 0 173 84 173 184z m-693 0c0 82 67 153 142 153 20 0 39-4 58-13 5-2 10-2 14 1 5 2 8 7 8 12 8 72 68 127 140 127 68 0 126-48 139-115 2-7 8-12 16-12 1 0 2 0 3 0 75 0 141-71 141-153s-66-153-141-153h-378c-75 0-142 72-142 153z m287-379c-9 0-16-7-16-15s7-16 16-16 15 7 15 16-7 15-15 15z m189 0c-9 0-16-7-16-15s7-16 16-16 15 7 15 16-7 15-15 15z m-95-63c-9 0-16-7-16-16s7-16 16-16 16 7 16 16c0 9-7 16-16 16z m-189 0c-8 0-15-7-15-16s7-16 15-16 16 7 16 16c0 9-7 16-16 16z" horiz-adv-x="1000" />
<glyph glyph-name="dusty" unicode="&#xe80a;" d="m149 305c8 0 15 8 15 17 0 83 65 153 142 153 20 0 39-4 58-13 5-2 10-2 14 1 5 2 8 7 8 12 8 74 68 129 140 129 67 0 126-49 139-116 1-8 8-13 16-13 1 0 2 0 2 0 77 0 142-70 142-153 0-9 7-17 16-17s16 8 16 17c0 97-75 180-164 185-21 76-89 130-167 130-81 0-150-58-168-138-17 6-34 8-52 8-94 0-173-85-173-185 0-9 7-17 16-17z m2-84h693c8 0 15 8 15 17s-7 16-15 16h-693c-8 0-16-7-16-16s8-17 16-17z m0-72h693c8 0 15 8 15 17 0 10-7 17-15 17h-693c-8 0-16-7-16-17 0-9 8-17 16-17z m0-76h693c8 0 15 7 15 16s-7 16-15 16h-693c-8 0-16-7-16-16 0-9 8-16 16-16z" horiz-adv-x="1000" />
<glyph glyph-name="fog" unicode="&#xe80b;" d="m269 376c9 0 16 8 16 16 0 122 99 221 220 221 122 0 221-99 221-221 0-8 7-16 15-16s16 8 16 16c0 139-113 252-252 252s-251-113-251-252c0-8 7-16 15-16z m406-202c6 6 7 16 1 23-6 6-16 7-22 1-41-37-94-57-149-57-55 0-107 20-148 57-6 6-16 5-22-1-6-7-5-17 1-22 46-43 107-66 169-66 63 0 123 23 170 65z m-480 128h629c9 0 16 7 16 16s-7 15-16 15h-629c-9 0-16-7-16-15 0-9 7-16 16-16z m535-32h-441c-9 0-16-7-16-15s7-16 16-16h441c8 0 15 7 15 16 0 8-7 15-15 15z" horiz-adv-x="1000" />
<glyph glyph-name="heavy-rain" unicode="&#xe80c;" d="m881 412c0 95-73 176-162 181-20 74-88 126-164 126-81 0-149-56-166-134-17 6-35 8-52 8-93 0-171-83-171-181s78-181 171-181h373c93 0 171 83 171 181z m-684 0c0 81 64 150 140 150 19 0 39-4 57-13 5-2 10-2 14 1 5 2 8 7 8 12 8 72 68 126 139 126 66 0 124-48 137-114 1-7 7-12 15-12 2 0 3 0 3 0 76 0 140-69 140-150s-64-149-140-149h-373c-76 0-140 68-140 149z m112-232c-6 6-16 6-22 0l-78-79c-6-6-6-16 0-22 3-3 7-5 11-5s8 2 11 5l78 78c6 7 6 17 0 23z m124 0c-6 6-16 6-22 0l-77-79c-6-6-6-16 0-22 3-3 7-5 11-5s8 2 11 5l77 78c6 7 6 17 0 23z m125 0c-6 6-16 6-22 0l-78-79c-6-6-6-16 0-22 3-3 7-5 11-5s8 2 11 5l78 78c6 7 6 17 0 23z m102 0l-77-79c-7-6-7-16 0-22 3-3 7-5 11-5s8 2 11 5l77 78c6 7 6 17 0 23s-16 6-22 0z m-124-126l-31-32c-6-6-6-16 0-22 3-3 7-5 11-5s8 2 11 5l31 32c6 6 6 16 0 22-6 6-16 6-22 0z m-125 0l-31-32c-6-6-6-16 0-22 3-3 7-5 11-5s8 2 11 5l31 32c6 6 6 16 0 22-6 6-16 6-22 0z m-124 0l-31-32c-6-6-6-16 0-22 3-3 7-5 11-5 4 0 8 2 11 5l31 32c6 6 6 16 0 22-6 6-16 6-22 0z m-125 0l-31-32c-6-6-6-16 0-22 3-3 7-5 11-5s8 2 11 5l31 32c7 6 7 16 0 22s-15 6-22 0z" horiz-adv-x="1000" />
<glyph glyph-name="heavy-snow" unicode="&#xe80d;" d="m295 206h377c93 0 173 90 173 192 0 99-75 187-163 193-21 75-89 128-167 128-81 0-150-57-168-137-17 6-34 9-52 9-92 0-173-90-173-193 0-102 81-192 173-192z m0 353c20 0 39-5 58-13 5-2 10-2 14 0 5 3 8 7 8 13 8 73 68 128 140 128 67 0 126-49 139-116 1-7 8-12 16-13 1 1 2 1 2 1 81 0 142-85 142-161 0-76-61-160-142-160h-377c-81 0-142 84-142 160 0 76 61 161 142 161z m352-562c0-9 7-16 16-16s16 7 16 16-7 16-16 16c-9 0-16-7-16-16z m-336 74c0-9 7-16 16-16s16 7 16 16-7 16-16 16c-9 0-16-7-16-16z m83 33c0-8 7-16 16-16s16 8 16 16-7 16-16 16c-9 0-16-7-16-16z m167 0c0-8 7-16 16-16s16 8 16 16-7 16-16 16c-9 0-16-7-16-16z m-167-83c0-9 7-16 16-16s16 7 16 16-7 16-16 16c-9 0-16-7-16-16z m167 0c0-9 7-16 16-16s16 7 16 16-7 16-16 16c-9 0-16-7-16-16z m-78 50c0-9 7-16 15-16s16 7 16 16-7 16-16 16c-8 0-15-7-15-16z m31 69c0 9-7 16-16 16s-15-7-15-16 7-16 15-16c9 0 16 7 16 16z m133 1c0-9 7-16 16-16s16 7 16 16-7 16-16 16c-9 0-16-7-16-16z m-133-143c0 9-7 16-16 16s-15-7-15-16 7-16 15-16c9 0 16 7 16 16z m-203 143c0-9 7-16 16-16s16 7 16 16-7 16-16 16c-9 0-16-7-16-16z m0-143c0-9 7-16 16-16s16 7 16 16-7 16-16 16c-9 0-16-7-16-16z m336 73c0-9 7-16 16-16s16 7 16 16-7 16-16 16c-9 0-16-7-16-16z" horiz-adv-x="1000" />
<glyph glyph-name="moderate-rain" unicode="&#xe80e;" d="m297 208h377c99 0 173 103 173 195 0 89-69 188-164 195-20 74-88 127-166 127-81 0-150-57-168-136-17 6-35 9-52 9-99 0-173-103-173-195 0-92 74-195 173-195z m0 358c19 0 39-4 58-13 4-2 10-2 14 1 4 2 7 7 8 12 8 72 68 127 140 127 67 0 125-48 139-115 1-7 8-12 16-12 1 0 2 0 2 0 80 0 142-88 142-163s-62-163-142-163h-377c-80 0-142 88-142 163 0 75 62 163 142 163z m31-421v-127c0-9 7-16 16-16s16 7 16 16v127c0 9-7 16-16 16-9 0-16-7-16-16z m189 0v-127c0-9 7-16 16-16s15 7 15 16v127c0 9-7 16-15 16s-16-7-16-16z m-94 0v-64c0-9 7-16 15-16s16 7 16 16v64c0 9-7 16-16 16-8 0-15-7-15-16z m188 0v-64c0-9 7-16 16-16s16 7 16 16v64c0 9-7 16-16 16-9 0-16-7-16-16z" horiz-adv-x="1000" />
<glyph glyph-name="moderate-snow" unicode="&#xe80f;" d="m311 192h378c92 0 173 90 173 193 0 99-76 186-164 192-21 75-89 129-166 129-82 0-151-58-168-137-17 5-35 8-53 8-92 0-173-90-173-192 0-103 81-193 173-193z m0 353c20 0 40-4 58-13 5-2 10-2 15 1 4 2 7 7 8 12 8 73 68 129 140 129 67 0 125-49 138-116 2-8 8-13 16-13 1 0 2 0 3 0 81 0 141-85 141-160 0-76-60-161-141-161h-378c-81 0-141 85-141 161 0 75 60 160 141 160z m79-482c0-8 7-16 16-16s15 8 15 16-7 16-15 16c-9 0-16-7-16-16z m157 0c0-8 7-16 16-16s16 8 16 16-7 16-16 16-16-7-16-16z m-31 65c0 9-7 16-16 16s-16-7-16-16 7-16 16-16c9 0 16 7 16 16z m126 0c0-9 7-16 15-16s16 7 16 16-7 16-16 16c-8 0-15-7-15-16z m-158-129c0 9-7 16-15 16s-16-7-16-16 7-16 16-16c8 0 15 7 15 16z m-157 129c0-9 7-16 16-16s15 7 15 16-7 16-15 16c-9 0-16-7-16-16z" horiz-adv-x="1000" />
<glyph glyph-name="rainstorm" unicode="&#xe810;" d="m847 438c0 95-73 175-162 181-20 73-87 126-164 126-81 0-149-57-166-134-17 5-35 8-52 8-93 0-171-83-171-181s78-181 171-181h373c93 0 171 83 171 181z m-684 0c0 81 64 149 140 149 20 0 39-4 57-12 5-2 10-2 15 0 4 3 7 7 7 12 8 72 68 126 139 126 66 0 124-47 137-113 1-8 7-13 16-13 1 0 2 0 2 0 76 0 140-68 140-149 0-81-64-150-140-150h-373c-76 1-140 69-140 150z m497-232l-2-111c0-8 7-15 16-16 4 0 8 2 11 5 3 2 5 6 5 11l1 110c0 9-7 16-15 16-9 0-16-6-16-15z m-2-177l-1-44c0-9 7-16 15-16 5-1 9 1 12 4 2 3 4 6 4 11l1 44c0 9-7 16-16 16-8 0-15-6-15-15z m-72 192c-9 0-16-6-16-15l-1-111c0-8 7-15 15-16 5 0 8 2 11 5 3 2 5 6 5 11l2 110c0 9-7 16-16 16z m-18-192l-1-44c0-9 7-16 16-16 4-1 8 1 11 4 3 3 5 6 5 11l0 44c0 9-7 16-15 16-9 0-16-6-16-15z m-72 192c-8 0-15-6-15-15l-2-111c0-8 7-15 16-16 4 0 8 2 11 5 3 2 4 6 4 11l2 110c0 9-7 16-16 16z m-18-192l0-44c0-9 6-16 15-16 4-1 8 1 11 4 3 3 5 6 5 11l1 44c0 9-7 16-16 16-9 0-16-6-16-15z m-171 192c-9 0-16-6-16-15l-1-111c-1-8 6-15 15-16 4 0 8 2 11 5 3 2 5 6 5 11l1 110c0 9-7 16-15 16z m-18-192l-1-44c0-9 7-16 15-16 5-1 9 1 12 4 2 3 4 6 4 11l1 44c0 9-7 16-16 16-8 0-15-6-15-15z m118 192c-9 0-16-6-16-15l-2-111c0-8 7-15 16-16 4 0 8 2 11 5 3 2 5 6 5 11l1 110c0 9-7 16-15 16z m-18-192l-1-44c0-9 7-16 15-16 5-1 9 1 11 4 3 3 5 6 5 11l1 44c0 9-7 16-16 16-8 0-15-6-15-15z" horiz-adv-x="1000" />
<glyph glyph-name="showers" unicode="&#xe811;" d="m259 86l-79-78c-7-6-7-16 0-22 3-3 7-4 11-4 4 0 8 1 11 4l79 78c7 6 7 16 0 22-6 6-16 6-22 0z m127 0l-79-78c-7-6-7-16 0-22 3-3 7-4 11-4s8 1 11 4l79 78c7 6 7 16 0 22-6 6-16 6-22 0z m127 0l-79-78c-6-6-6-16 0-22 3-3 7-4 11-4s8 1 11 4l80 78c6 6 6 16 0 22-7 6-17 6-23 0z m127 0l-79-78c-6-6-6-16 0-22 3-3 7-4 11-4s8 1 11 4l80 78c6 6 6 16 0 22-7 6-17 6-23 0z m-350 59h381c96 0 175 78 175 172 0 40-14 76-37 105 39 34 61 83 61 134 0 100-83 182-185 182-79 0-150-51-175-124-81-1-149-56-167-133-17 6-35 9-53 9-96 0-175-78-175-173 0-94 79-172 175-172z m395 561c84 0 153-67 153-150 0-42-19-83-51-111-29 25-66 42-107 44-18 64-72 111-137 122 23 57 79 95 142 95z m-395-248c20 0 40-4 59-12 4-2 10-2 14 0 4 3 7 7 8 12 8 71 69 125 141 125 68 0 127-47 140-112 2-8 8-13 16-13 1 0 2 0 3 0 79 0 143-63 143-141 0-77-64-140-143-140h-381c-79 0-143 63-143 140 0 78 64 141 143 141z" horiz-adv-x="1000" />
<glyph glyph-name="snow-shower" unicode="&#xe812;" d="m465 83c0-9 7-16 15-16s16 7 16 16-7 16-16 16-15-7-15-16z m157 3c0-9 7-16 16-16s16 7 16 16-8 16-16 16c-9 0-16-7-16-16z m-156-105c0 9-7 16-15 16s-16-7-16-16 7-16 16-16 15 7 15 16z m-159 105c0-9 7-16 16-16s16 7 16 16-7 16-16 16c-9 0-16-7-16-16z m-10 51h382c96 0 174 78 174 174 0 39-14 76-37 105 39 35 61 84 61 136 0 101-82 183-184 183-79 0-150-51-175-125-81-1-150-57-168-134-17 5-35 8-53 8-96 0-174-78-174-173 0-96 78-174 174-174z m396 566c84 0 153-68 153-151 0-43-19-84-51-113-29 26-66 43-107 45-18 64-72 111-137 123 23 57 79 96 142 96z m-396-250c20 0 40-5 59-13 5-2 10-2 15 1 4 2 7 7 7 12 9 71 69 126 142 126 68 0 126-48 140-114 1-7 8-13 15-13 2 0 3 1 4 1 78 0 143-64 143-142 0-79-65-143-143-143h-382c-78 0-143 64-143 143 0 78 65 142 143 142z" horiz-adv-x="1000" />
<glyph glyph-name="snowstorm" unicode="&#xe813;" d="m861 397c0 97-74 179-163 184-21 75-89 128-167 128-81 0-150-57-168-136-17 6-35 9-52 9-94 0-173-85-173-185 0-100 79-185 173-185h377c94 0 173 85 173 185z m-692 0c0 81 66 153 142 153 19 0 39-5 58-13 4-2 10-2 14 0 4 3 7 7 8 12 8 73 68 128 140 128 67 0 125-48 139-115 1-7 8-12 16-13 1 0 2 1 2 1 76 0 142-72 142-153s-66-153-142-153h-377c-76 0-142 72-142 153z m486-401c0-9 7-16 15-16 9 0 16 7 16 16s-7 16-16 16c-8 0-15-7-15-16z m-337 75c0-9 7-16 16-16s16 7 16 16-7 16-16 16c-9 0-16-7-16-16z m84 33c0-9 7-16 15-16s16 7 16 16-7 16-16 16-15-7-15-16z m166 0c0-9 7-16 16-16s16 7 16 16-7 16-16 16-16-7-16-16z m-166-83c0-9 7-16 15-16s16 7 16 16-7 16-16 16c-8 0-15-7-15-16z m166 0c0-9 7-16 16-16s16 7 16 16-7 16-16 16c-9 0-16-7-16-16z m-78 50c0-9 7-16 16-16s15 7 15 16-7 16-15 16c-9 0-16-7-16-16z m31 68c0 9-7 16-15 16s-16-7-16-16 7-16 16-16 15 7 15 16z m134 2c0-9 7-16 15-16s16 7 16 16-7 16-16 16c-8 0-15-7-15-16z m-134-144c0 9-7 17-15 17s-16-8-16-17 7-16 16-16c8 0 15 8 15 16z m-203 144c0-9 7-16 16-16s16 7 16 16-7 16-16 16c-9 0-16-7-16-16z m0-144c0-8 7-16 16-16s16 8 16 16-7 17-16 17c-9 0-16-8-16-17z m337 74c0-9 7-16 15-16 9 0 16 7 16 16s-7 16-16 16-15-7-15-16z" horiz-adv-x="1000" />
<glyph glyph-name="stormy" unicode="&#xe814;" d="m841 437c0 95-74 176-162 181-21 74-88 126-165 126-80 0-149-56-166-134-17 5-34 8-52 8-93 0-171-83-171-181s78-181 171-181h373c93 0 172 83 172 181z m-685 0c0 81 64 150 140 150 20 0 39-5 58-13 4-2 9-2 14 0 4 3 7 7 8 12 7 72 67 127 138 127 66 0 124-48 137-114 2-8 7-13 16-13 1 0 2 0 2 1 76 0 140-69 140-150s-64-149-140-149h-373c-76 0-140 68-140 149z m497-232l-1-110c0-9 6-16 15-16 4-1 8 1 11 4 3 3 5 6 5 11l1 110c1 9-6 16-15 16s-16-6-16-15z m-2-177l-1-44c0-9 7-16 16-16 4 0 8 1 11 4 3 3 4 7 4 11l1 44c0 9-7 16-15 16s-16-6-16-15z m-72 192c-8 1-15-6-16-15l-1-110c0-9 7-16 15-16 5-1 9 1 12 4 2 3 4 7 4 11l2 110c0 9-7 16-16 16z m-18-192l0-44c-1-9 6-16 15-16 4 0 8 1 11 4 3 3 5 7 5 11l0 44c1 9-6 16-15 16-9 1-16-6-16-15z m-71 192c-9 1-16-6-16-15l-2-110c0-9 7-16 16-16 4-1 8 1 11 4 3 3 5 7 5 11l1 110c0 9-7 16-15 16z m-19-192l0-44c0-9 7-16 15-16 5 0 9 1 11 4 3 3 5 7 5 11l1 44c0 9-7 16-16 16-8 1-15-6-16-15z m-171 192c-9 1-16-6-16-15l-1-110c0-9 7-16 15-16 4-1 8 1 11 4s5 7 5 11l1 110c1 9-6 16-15 16z m-18-192l-1-44c0-9 7-16 16-16 4 0 8 1 11 4s4 7 5 11l0 44c0 9-7 16-15 16s-16-6-16-15z m118 192c-9 1-16-6-16-15l-1-110c-1-9 6-16 15-16 4-1 8 1 11 4s5 7 5 11l1 110c0 9-6 16-15 16z m-18-192l-1-44c0-9 7-16 16-16 4 0 8 1 11 4s4 7 4 11l1 44c0 9-7 16-15 16-9 1-16-6-16-15z" horiz-adv-x="1000" />
<glyph glyph-name="sunny" unicode="&#xe815;" d="m495 98c139 0 252 113 252 252 0 139-113 252-252 252s-252-113-252-252c0-139 113-252 252-252z m0 472c121 0 220-98 220-220s-99-220-220-220-220 99-220 220c0 122 98 220 220 220z m-11 110c9 0 16 8 16 16v126c0 9-7 16-16 16s-15-7-15-16v-126c0-8 7-16 15-16z m16-802v126c0 9-7 16-16 16s-15-7-15-16v-126c0-9 7-16 15-16 9 0 16 7 16 16z m-330 456c0 9-7 16-16 16h-126c-9 0-16-7-16-16s7-15 16-15h126c9 0 16 7 16 15z m802 16h-126c-9 0-16-7-16-16s7-15 16-15h126c9 0 16 7 16 15s-7 16-16 16z m-795-345l89 89c7 6 7 16 0 22-6 7-16 7-22 0l-89-89c-6-6-6-16 0-22 3-3 7-4 11-4 4 0 8 1 11 4z m568 574c4 0 8 2 11 5l89 89c6 6 6 16 0 22s-16 6-22 0l-89-89c-6-6-6-16 0-22 3-3 7-5 11-5z m11-463c-6 7-16 7-22 0s-6-16 0-22l89-89c3-3 7-4 11-4 4 0 8 1 11 4 6 6 6 16 0 22l-89 89z m-512 468c3-3 7-5 11-5 4 0 8 2 11 5 7 6 7 16 0 22l-89 89c-6 6-16 6-22 0s-6-16 0-22l89-89z" horiz-adv-x="1000" />
<glyph glyph-name="thunderstorm" unicode="&#xe816;" d="m680 612c-21 74-89 126-167 126-81 0-150-56-168-135-17 6-34 9-52 9-94 0-173-84-173-183 0-100 79-184 173-184h378c93 0 173 84 173 184 0 96-74 177-164 183z m-9-335h-378c-75 0-142 71-142 152 0 80 67 151 142 151 20 0 39-4 58-13 5-2 10-2 14 1 5 2 8 7 8 12 8 72 68 127 140 127 67 0 126-48 139-114 2-8 8-13 15-13 2 0 3 0 4 0 75 0 141-71 141-151 0-81-66-152-141-152z m-331-321c3-3 7-4 11-4 4 0 8 1 11 5l100 103c4 5 5 12 3 17-3 6-8 10-15 10h-38l64 59c6 6 6 16 0 22-6 7-16 7-22 1l-92-86c-5-5-7-11-4-18 2-6 8-10 14-10h41l-74-76c-6-7-5-17 1-23z m224 123l78 79c7 6 7 16 0 22s-16 6-22 0l-78-79c-7-6-7-16 0-22 3-3 7-5 11-5 4 0 8 2 11 5z m-315 0l79 79c6 6 6 16 0 22s-16 6-23 0l-78-79c-6-6-6-16 0-22 3-3 7-5 11-5 4 0 8 2 11 5z" horiz-adv-x="1000" />
<glyph glyph-name="typhoon" unicode="&#xe817;" d="m485 298c0 9-7 16-16 16h-378c-9 0-16-7-16-16s7-16 16-16h378c9 0 16 7 16 16z m265 236c-9 0-16-7-16-16s7-15 16-15c75 0 143-75 143-158 0-74-60-157-141-157h-377c-9 0-16-7-16-16s7-16 16-16h377c92 0 173 89 173 189 0 99-84 189-175 189z m-40-197c0 58-46 107-101 107-9 0-16-7-16-16s7-16 16-16c37 0 69-34 69-75 0-39-32-86-70-86h-391c-9 0-16-7-16-16s7-16 16-16h391c57 0 102 64 102 118z" horiz-adv-x="1000" />
<glyph glyph-name="wintry-mix" unicode="&#xe818;" d="m696 608c-21 74-88 127-165 127-80 0-148-57-166-135-17 5-34 8-52 8-92 0-171-84-171-183 0-99 79-183 171-183h374c92 0 171 84 171 183 0 96-74 178-162 183z m-9-335h-374c-74 0-139 71-139 152 0 81 65 152 139 152 20 0 39-5 58-13 5-2 10-2 14 0 4 3 7 7 8 12 8 73 67 127 138 127 67 0 124-48 137-114 2-7 8-13 16-13 1 0 2 0 3 1 74 0 140-71 140-152 0-81-66-152-140-152z m-308-303c3-3 7-5 10-5 4 0 9 2 12 5l98 104c4 4 6 11 3 17-2 6-8 9-14 9h-38l63 59c6 6 6 16 1 23-6 6-16 6-22 0l-92-86c-4-4-6-11-4-17 3-6 8-10 15-10h40l-73-77c-6-6-6-16 1-22z m-61 69c0-9 7-17 16-17s16 8 16 17-8 16-16 16-16-8-16-16z m236 101c0-9 7-16 16-16s15 7 15 16-7 16-15 16c-9 0-16-7-16-16z m86-59l78 79c7 6 7 16 0 22s-16 6-22 0l-78-79c-7-6-7-16 0-22 3-3 7-5 11-5 4 0 8 2 11 5z m-106-42c0-9 7-17 16-17 8 0 15 8 15 17s-7 16-15 16-16-8-16-16z m-244 42l78 79c7 6 7 16 0 22s-16 6-22 0l-78-79c-7-6-7-16 0-22 3-3 7-5 11-5 4 0 8 2 11 5z" horiz-adv-x="1000" />
<glyph glyph-name="password" unicode="&#xe819;" d="m798 448v106c0 152-134 275-298 275-164 0-298-123-298-275v-106h-86v-180c0-219 172-396 384-396 212 0 384 177 384 396v180h-86z m-512 106c0 106 96 192 214 192 118 0 214-86 214-192v-106h-428v106z m515-286c0-173-135-313-301-313s-301 140-301 313v97h602v-97z" horiz-adv-x="1000" />
<glyph glyph-name="email" unicode="&#xe81a;" d="m56 697v-723h888v723h-888z m833-667h-778v611h778v-611z m-698 97l153 255 156-78 156 78 153-255 48 28-151 252 140 70-25 50-321-161-321 161-25-50 140-70-151-252 48-28z" horiz-adv-x="1000" />
<glyph glyph-name="position" unicode="&#xe81b;" d="m60-55h880v361h-880v-361z m468 306c0-16-13-28-28-28-15 0-27 12-27 28h55z m-413 0h303c0-46 37-84 82-84 45 0 82 38 82 84h303v-250h-770v250z m303 388c0 46 37 84 82 84 45 0 82-38 82-84v-55h110v55h-55c0 77-61 139-137 139-76 0-137-62-137-139h-55v-55h110v55z m-358-111v-166h55v111h770v-111h55v166h-880z" horiz-adv-x="1000" />
<glyph glyph-name="telephone" unicode="&#xe81c;" d="m284 124c-167 167-218 404-115 539l-44 34c-122-160-70-423 120-613 118-118 265-181 396-181 79 0 152 23 211 70l-35 43c-132-106-366-59-533 108z m407 203l-77-77c-29-29-68-45-109-45-42 0-80 16-110 45-60 61-60 159 0 220l77 77-249 250-39-39 210-211-38-38c-82-82-82-216 0-298 40-40 93-62 149-62 56 0 109 22 149 62l37 38 210-211 40 39-250 250z" horiz-adv-x="1000" />
<glyph glyph-name="user" unicode="&#xe81d;" d="m966-13l-131 149-1-1 0 1c-97-29-211-44-330-44-122 0-238 16-336 46l-1-4-2 2-131-149 77-67 92 104c92-22 195-34 301-34 104 0 204 11 295 32l91-102 76 67z m-466 710c114 0 206-92 206-206s-92-206-206-206-206 92-206 206 93 206 206 206m0 83c-160 0-289-129-289-289s129-289 289-289c160 0 290 129 290 289s-130 289-290 289l0 0z" horiz-adv-x="1000" />
<glyph glyph-name="work-unit" unicode="&#xe81e;" d="m444 627h-222v-110h222v110z m-28-81h-166v54h166v-54z m-360-640h222v55h-1v138h110v-110h2v-83h222v83h0v472h0v139h0v83h-55v-722h-111v195h-222v-195h-112v778h417v0h83v56h-555v-889z m638 250h112v111h-112v-111z m29 83h53v-55h-53v55z m83 166h-112v-111h112v111z m-30-81h-53v55h53v-55z m-109 249v-57h222v-555h-222v-55h277v666l-277 1z m-445-251h222v111h-222v-111z m28 83h166v-53h-166v53z" horiz-adv-x="1000" />
<glyph glyph-name="menu-1" unicode="&#xe81f;" d="m650 400q22 0 36-15t14-35-15-35-35-15l-600 0q-20 0-35 15t-15 35 14 35 36 15l600 0z m-600 100q-20 0-35 15t-15 35 14 35 36 15l600 0q22 0 36-15t14-35-15-35-35-15l-600 0z m600-300q22 0 36-15t14-35-15-35-35-15l-600 0q-20 0-35 15t-15 35 14 35 36 15l600 0z" horiz-adv-x="700" />
<glyph glyph-name="icon_1" unicode="&#xe820;" d="m145 127c-41 64-65 141-65 223 0 232 188 420 420 420 82 0 159-24 224-65l43 44c-76 51-168 81-267 81-265 0-480-215-480-480 0-99 30-191 81-267l44 44z m772 460l-44-44c30-58 47-123 47-193 0-232-188-420-420-420-70 0-135 17-193 47l-44-44c70-40 151-63 237-63 265 0 480 215 480 480 0 86-23 167-63 237z" horiz-adv-x="1000" />
<glyph glyph-name="angle-left" unicode="&#xe821;" d="m25 314q0 8 6 13l260 260q5 6 13 6t12-6l28-28q6-5 6-13t-6-12l-219-220 219-219q6-6 6-13t-6-13l-28-28q-5-5-12-5t-13 5l-260 260q-6 6-6 13z" horiz-adv-x="357.1" />
<glyph glyph-name="angle-right" unicode="&#xe822;" d="m7 82q0 7 6 13l219 219-219 220q-6 5-6 12t6 13l28 28q5 6 13 6t12-6l260-260q6-5 6-13t-6-13l-260-260q-5-5-12-5t-13 5l-28 28q-6 6-6 13z" horiz-adv-x="357.1" />
<glyph glyph-name="angle-up" unicode="&#xe823;" d="m43 189q0 8 6 13l260 260q5 6 12 6t13-6l260-260q6-5 6-13t-6-13l-28-27q-5-6-12-6t-13 6l-220 219-219-219q-5-6-13-6t-13 6l-27 27q-6 6-6 13z" horiz-adv-x="642.9" />
<glyph glyph-name="angle-down" unicode="&#xe824;" d="m43 439q0 8 6 13l27 28q6 6 13 6t13-6l219-219 220 219q5 6 13 6t12-6l28-28q6-5 6-13t-6-13l-260-260q-5-5-13-5t-12 5l-260 260q-6 6-6 13z" horiz-adv-x="642.9" />
<glyph glyph-name="down-open-big" unicode="&#xe825;" d="m63 570l370-356 372 356q22 26 48 0 26-22 0-48l-396-392q-22-22-48 0l-396 392q-26 26 0 48 24 24 50 0z" horiz-adv-x="866" />
<glyph glyph-name="left-open-big" unicode="&#xe826;" d="m452-20q26-26 0-48-26-26-48 0l-392 394q-24 24 0 50l392 394q22 26 48 0 26-22 0-48l-358-372z" horiz-adv-x="465" />
<glyph glyph-name="right-open-big" unicode="&#xe827;" d="m13-20l358 370-358 372q-26 26 0 48 26 26 48 0l392-394q24-26 0-50l-392-394q-22-26-48 0-26 22 0 48z" horiz-adv-x="465" />
<glyph glyph-name="up-open-big" unicode="&#xe828;" d="m804 130l-372 358-370-358q-26-22-50 0-24 24 0 50l396 390q26 26 48 0l396-390q24-26 0-50-26-22-48 0z" horiz-adv-x="864" />
<glyph glyph-name="fire" unicode="&#xe829;" d="m301 740c0 0 33-11 39-39 12-54-22-90-77-192-75-139 22-333 192-347 169-13 344 98 270 308-45 130 77 231 77 231s-93 18-154-38c-89-82 124 167-193 308 0 0 57-95-38-231h-116z" horiz-adv-x="1000" />
<glyph glyph-name="ok" unicode="&#xe82a;" d="m875 588l-535-600-340 338 123 124 196-195 420 457z" horiz-adv-x="875" />
<glyph glyph-name="sov" unicode="&#xe82b;" d="m900 675c-55 0-100-45-100-100 0-21 6-40 17-56l-162-244c-2 0-3 0-5 0-1 0-3 0-4 0l-163 244c11 16 17 35 17 56 0 55-45 100-100 100s-100-45-100-100c0-19 6-37 15-52l-172-258c-13 6-27 10-43 10-55 0-100-45-100-100s45-100 100-100 100 45 100 100c0 7-1 15-2 21l186 281c6-1 11-2 16-2s11 1 16 2l158-238c-15-17-24-39-24-64 0-55 45-100 100-100s100 45 100 100c0 25-9 47-24 64l158 238c6-1 11-2 16-2 55 0 100 45 100 100s-45 100-100 100z" horiz-adv-x="1000" />
<glyph glyph-name="grp" unicode="&#xe82c;" d="m525 725c-41 0-75-34-75-75 0-41 34-75 75-75 111 0 200-90 200-200s-89-200-200-200-200 90-200 200c0 41-34 75-75 75-41 0-75-34-75-75 0-193 157-350 350-350 193 0 350 157 350 350 0 193-157 350-350 350z" horiz-adv-x="1000" />
<glyph glyph-name="zydata" unicode="&#xe82d;" d="m425 25h150v600h-150v-600z m300 450v-450h150v450h-150z m-600-450h150v250h-150v-250z" horiz-adv-x="1000" />
<glyph glyph-name="khhybx" unicode="&#xe82e;" d="m275-25h200v250h-200v-250z m0 300h200v200h-200v-200z m0 250h200v200h-200v-200z m250-550h200v150h-200v-150z m0 450v-250h200v250h-200z" horiz-adv-x="1000" />
<glyph glyph-name="bgdyfb" unicode="&#xe82f;" d="m725 475c55 0 100 45 100 100s-45 100-100 100c-55 0-100-45-100-100s45-100 100-100z m0-200c-55 0-100-45-100-100 0-55 45-100 100-100 55 0 100 45 100 100 0 55-45 100-100 100z m-400 0c-55 0-100-45-100-100 0-55 45-100 100-100s100 45 100 100c0 55-45 100-100 100z m0 400c-55 0-100-45-100-100s45-100 100-100 100 45 100 100-45 100-100 100z" horiz-adv-x="1000" />
<glyph glyph-name="mtyjnl" unicode="&#xe830;" d="m254 325c0 55 18 105 49 147l-60 86c-55-62-89-144-89-233 0-85 31-164 82-224l62 83c-27 40-44 89-44 141z m246 400c-70 0-135-18-193-49l115-167c24 10 50 16 78 16 111 0 200-90 200-200 0-110-89-200-200-200-31 0-59 7-85 20l-122-162c61-37 131-58 207-58 221 0 400 179 400 400 0 221-179 400-400 400z" horiz-adv-x="1000" />
<glyph glyph-name="mtmbszfe" unicode="&#xe831;" d="m600 275h-200c-83 0-150-67-150-150v-50h500v50c0 83-67 150-150 150z m-100 100c83 0 150 67 150 150 0 83-67 150-150 150-83 0-150-67-150-150 0-83 67-150 150-150z" horiz-adv-x="1000" />
<glyph glyph-name="mthygzd" unicode="&#xe832;" d="m200 650v-100h600v100h-600z m0-350h600v100h-600v-100z m0-250h600v100h-600v-100z" horiz-adv-x="1000" />
<glyph glyph-name="mthyfe" unicode="&#xe833;" d="m500 750c-221 0-400-179-400-400 0-221 179-400 400-400 221 0 400 179 400 400 0 221-179 400-400 400z m0-700c-166 0-300 134-300 300s134 300 300 300c166 0 300-134 300-300s-134-300-300-300z" horiz-adv-x="1000" />
<glyph glyph-name="trash" unicode="&#xe834;" d="m0 582v36q0 8 5 13t13 5h172l39 93q9 21 31 35t44 15h178q22 0 44-15t30-35l39-93h173q8 0 13-5t5-13v-36q0-8-5-13t-13-5h-54v-529q0-46-26-80t-63-34h-464q-37 0-63 33t-27 79v531h-53q-8 0-13 5t-5 13z m143-547q0-12 4-22t8-15 6-5h464q2 0 6 5t8 15 4 22v529h-500v-529z m71 83v321q0 8 5 13t13 5h36q8 0 13-5t5-13v-321q0-8-5-13t-13-5h-36q-8 0-13 5t-5 13z m54 518h250l-27 65q-4 5-9 6h-177q-6-1-10-6z m89-518v321q0 8 5 13t13 5h36q8 0 13-5t5-13v-321q0-8-5-13t-13-5h-36q-8 0-13 5t-5 13z m143 0v321q0 8 5 13t13 5h36q7 0 12-5t5-13v-321q0-8-5-13t-12-5h-36q-8 0-13 5t-5 13z" horiz-adv-x="785.7" />
<glyph glyph-name="mtfebb" unicode="&#xe835;" d="m75 225h150v200h-150v-200z m200 0h150v200h-150v-200z m200-100h250v400h-250v-400z m300 300v-200h150v200h-150z" horiz-adv-x="1000" />
<glyph glyph-name="spin1" unicode="&#xe836;" d="m496 850c-176 0-331-90-421-226-18-27-33-55-46-85-12-29-21-60-28-92 0 0 0-1 0-1l0 0 0 0c0-1 0-2 0-2 0-7 5-12 11-12l101 0c5 0 10 4 11 9 29 113 109 206 214 253 20 10 41 17 63 23 31 7 62 11 95 11l0 0 0 0 0 0c25 0 50-2 74-7 5-1 10-2 14-3 6-1 10-3 14-4l0 0c5-1 11 1 13 6l51 87c0 0 1 1 1 2 2 6-1 13-7 15-22 7-43 13-65 17-5 1-9 1-13 2-27 5-54 7-82 7l0 0 0 0z m327-114c-5 0-9-2-11-6l-50-87c-3-4-2-10 2-14 29-29 54-63 73-101 4-7 7-14 11-22 19-46 30-97 30-151l0 0 0 0c0-77-22-149-62-209-7-11-15-23-24-34-9-10-18-20-28-30l0 0 0 0 0 0c-4-4-5-10-2-14l50-87c0-1 1-2 2-3 4-5 11-5 16-1 58 52 104 117 134 190 6 14 11 29 15 44 14 46 21 94 21 144 0 108-34 209-92 291-11 16-23 31-37 46-13 14-26 28-41 41l0 0c-1 1-1 1-2 1-2 1-4 2-5 2z m-811-468l0 0c-1 0-2 0-3 0-6-1-10-8-9-14 34-166 149-302 302-366 30-12 61-21 93-28 32-6 66-10 100-10l0 0 0 0c40 0 79 5 117 14 7 1 14 3 22 5 6 2 13 5 20 7 1 0 2 1 3 1 6 3 8 10 4 16l-50 87c-3 5-8 7-13 6-14-4-28-7-42-9-3-1-6-1-8-2-18-2-35-3-53-3l0 0 0 0c-128 0-242 63-311 160-1 0-1 0-1 0-13 19-25 40-35 61-10 21-18 43-24 65-1 6-6 10-11 10l-101 0z" horiz-adv-x="1000" />
</font>
</defs>
</svg>
